<?xml version="1.0" encoding="UTF-8"?><svg id="Layer_1" xmlns="http://www.w3.org/2000/svg" viewBox="0 0 1024 980"><defs><style>.cls-1{fill:#fff;}</style></defs><path class="cls-1" d="m380.52,797.7c-22.18-6.79-82.09-10.29-130.58-25.36-11.51-2.72-23.17-6.45-34.82-10.75l61.69,218.41h147.31c11.72-7.54,22.77-16.51,32.79-27.74,52.27-62.79-4.13-139.29-76.38-154.56Z"/><path class="cls-1" d="m808.91,0H.02l104.84,371.19c73.7-59.68,186.53-76.43,277.69-48.95,43.46,10.88,99.88,36.08,148.63,37.38,56.28,2.61,33.99,62.15,33.99,62.15,53.06-22.71,53.82-60.11,38.48-100.4,0,0-.21.09-.26.11-7.56-22.82-24.89-40.29,1.48-82.03,25.7-40.67,54.45-23.26,86.41-72.79,16.04-24.86,49.52-72.74,93.86-54.5,43.45,17.87,20.16,85.34,12.77,118.57-12.8,57.56,18.87,63.88,5.77,110.19-18.86,66.66-59.7,36.88-84.5,76.48l-.14-.08c-34.24,49.63-80.16,86.49-158.58,87.87-71.43,2.21-134.35-16.73-200.06-36.17-20.38-5.79-42.33-9.97-63.28-10.62-44.88-4.4-112.33,18.26-114.78,66.27,5.09,66.64,102.84,88.96,163.55,94.58,21.69,2.08,52.63,4.54,73.75,9.59,169.4,30.63,277.61,197.45,228.68,351.13h117.24L1023.98,0h-215.07Z"/></svg>